# xmcd CD database file
#
# Track frame offsets:
#	150
#	18893
#	36333
#	54818
#	65249
#	79256
#	91044
#	106081
#	120182
#	134980
#	151630
#	171599
#	183035
#	193350
#	206166
#	226287
#
# Disc length: 3599 seconds
#
# Revision: 3
# Processed by: cddbd v1.4PL0 Copyright (c) Steve Scherf et al.
# Submitted via: CDex 1.50
#
DISCID=d30e0d10
DTITLE=Burtschi Brothers - Ain't Being Treated Right
DYEAR=2001
DGENRE=Country
TTITLE0=You Hold the Whiskey, I'll Hold the Money
TTITLE1=Ain't Being Treated Right
TTITLE2=Casting My Shadow
TTITLE3=Proud Woman
TTITLE4=Ain't Going Home Tonight
TTITLE5=Wishing Well
TTITLE6=Reckless Wind
TTITLE7=Leaver Her to Heaven
TTITLE8=Into the Blue
TTITLE9=Triflin' Too Long
TTITLE10=Searching
TTITLE11=Drivin' em Home
TTITLE12=Soft Way
TTITLE13=Just out of Reach
TTITLE14=Pontotoc County Line
TTITLE15=And it Grows
EXTD=YEAR: 2001
EXTT0=
EXTT1=
EXTT2=
EXTT3=
EXTT4=
EXTT5=
EXTT6=
EXTT7=
EXTT8=
EXTT9=
EXTT10=
EXTT11=
EXTT12=
EXTT13=
EXTT14=
EXTT15=
PLAYORDER=
